<svg id="kity_svg_6" xmlns="http://www.w3.org/2000/svg" xmlns:xlink="http://www.w3.org/1999/xlink" version="1.1" width="686" height="323" style="background: rgb(251, 251, 251); visibility: visible;" viewBox="0 0 686 323"><defs id="kity_defs_7"><linearGradient id="kity_linearGradient_17" x1="0" y1="0" x2="0" y2="1"><stop id="kity_stop_18" offset="0" stop-color="rgb(255, 255, 255)"></stop><stop id="kity_stop_19" offset="1" stop-color="rgb(204, 204, 204)"></stop></linearGradient><marker id="kity_marker_2" orient="auto" refX="6" refY="0" viewBox="-7 -7 14 14" markerWidth="7" markerHeight="7" markerUnits="userSpaceOnUse"><path id="kity_path_3" fill="rgb(115, 161, 191)" stroke="none" d="M6,0A6,6,0,1,1,-6,0A6,6,0,1,1,6,0"></path></marker></defs><g id="kity_g_8"><g id="minder1" text-rendering="optimize-speed"><g id="minder_connect_group1"><path id="kity_path_47" fill="none" stroke="rgb(115, 161, 191)" stroke-width="1" d="M289.5,185.5A183,78,0,0,1,472.5,107.5"></path><path id="kity_path_55" fill="none" stroke="rgb(115, 161, 191)" stroke-width="1" d="M289.5,185.5A183,12,0,0,1,472.5,173.5"></path><path id="kity_path_71" fill="none" stroke="rgb(115, 161, 191)" stroke-width="1" d="M289.5,185.5A183,78,0,0,0,472.5,263.5"></path><path id="kity_path_79" fill="none" stroke="rgb(115, 161, 191)" stroke-width="1" d="M289.5,185.5A183,66,0,0,0,106.5,119.5"></path><path id="kity_path_111" fill="none" stroke="rgb(115, 161, 191)" stroke-width="1" d="M289.5,185.5A177,102,0,0,1,112.5,287.5"></path><path id="kity_path_121" fill="none" stroke="rgb(115, 161, 191)" stroke-width="1" d="M557.5,263.5C572.5,263.5,572.5,251.5,587.5,251.5L666.5,251.5"></path><path id="kity_path_129" fill="none" stroke="rgb(115, 161, 191)" stroke-width="1" d="M557.5,263.5C572.5,263.5,572.5,303.5,587.5,303.5L666.5,303.5"></path><path id="kity_path_137" fill="none" stroke="rgb(115, 161, 191)" stroke-width="1" d="M289.5,185.5A191,152,0,0,1,480.5,33.5"></path></g><g id="minder_node1"><path id="node_outline1" fill="rgb(115, 161, 191)" stroke="rgb(115, 161, 191)" d="M229.5,165.5h120a5,5,0,0,1,5,5v30a5,5,0,0,1,-5,5h-120a5,5,0,0,1,-5,-5v-30a5,5,0,0,1,5,-5z" stroke-width="3"></path><g id="node_text1" fill="white"><text id="kity_text_22" text-rendering="inherit" font-size="16" dy=".8em" y="175.09999990463257" x="248.5">计算机网络</text></g></g><g id="kity_g_14" display="none"><path id="kity_path_15" fill="rgba(0, 92, 153, 0.5)" stroke="none" d="M20.5,203.5h84v20h-84z"></path><path id="kity_path_16" fill="none" stroke="rgb(0, 76, 128)" d="M20.5,203.5L104.5,203.5" stroke-width="1"></path></g><g id="minder_node4"><g id="node_expander3" style="cursor: pointer;" display="none"><path id="kity_path_52" fill="white" stroke="gray" d="M473.5,107.5A6,6,0,1,1,461.5,107.5A6,6,0,1,1,473.5,107.5"></path><path id="kity_path_53" fill="none" stroke="gray"></path></g><path id="node_outline4" fill="rgb(238, 243, 246)" stroke="rgb(115, 161, 191)" d="M477.5,94.5h78a3,3,0,0,1,3,3v20a3,3,0,0,1,-3,3h-78a3,3,0,0,1,-3,-3v-20a3,3,0,0,1,3,-3z" stroke-width="1"></path><g id="node_text4" fill="black"><text id="kity_text_49" text-rendering="inherit" font-size="14" dy=".8em" y="98.40000009536743" x="494.5">应用层</text></g></g><g id="minder_node5"><g id="node_expander4" style="cursor: pointer;" display="none"><path id="kity_path_60" fill="white" stroke="gray" d="M473.5,173.5A6,6,0,1,1,461.5,173.5A6,6,0,1,1,473.5,173.5"></path><path id="kity_path_61" fill="none" stroke="gray"></path></g><path id="node_outline5" fill="rgb(238, 243, 246)" stroke="rgb(115, 161, 191)" d="M477.5,160.5h78a3,3,0,0,1,3,3v20a3,3,0,0,1,-3,3h-78a3,3,0,0,1,-3,-3v-20a3,3,0,0,1,3,-3z" stroke-width="1"></path><g id="node_text5" fill="black"><text id="kity_text_57" text-rendering="inherit" font-size="14" dy=".8em" y="164.40000009536743" x="494.5">传输层</text></g></g><g id="minder_node7"><g id="node_expander6" style="cursor: pointer;"><path id="kity_path_76" fill="white" stroke="gray" d="M473.5,263.5A6,6,0,1,1,461.5,263.5A6,6,0,1,1,473.5,263.5"></path><path id="kity_path_77" fill="none" stroke="gray" d="M463,263.5L472,263.5"></path></g><path id="node_outline7" fill="rgb(238, 243, 246)" stroke="rgb(115, 161, 191)" d="M477.5,250.5h77a3,3,0,0,1,3,3v20a3,3,0,0,1,-3,3h-77a3,3,0,0,1,-3,-3v-20a3,3,0,0,1,3,-3z" stroke-width="1"></path><g id="node_text7" fill="black"><text id="kity_text_73" text-rendering="inherit" font-size="14" dy=".8em" y="254.40000009536743" x="494.5">网络层</text></g></g><g id="minder_node8"><g id="node_expander7" style="cursor: pointer;" display="none"><path id="kity_path_84" fill="white" stroke="gray" d="M117.5,119.5A6,6,0,1,1,105.5,119.5A6,6,0,1,1,117.5,119.5"></path><path id="kity_path_85" fill="none" stroke="gray"></path></g><path id="node_outline8" fill="rgb(238, 243, 246)" stroke="rgb(115, 161, 191)" d="M23.5,106.5h78a3,3,0,0,1,3,3v20a3,3,0,0,1,-3,3h-78a3,3,0,0,1,-3,-3v-20a3,3,0,0,1,3,-3z" stroke-width="1"></path><g id="node_text8" fill="black"><text id="kity_text_81" text-rendering="inherit" font-size="14" dy=".8em" y="110.40000009536743" x="40.5">链路层</text></g></g><g id="minder_node12" opacity="1"><g id="node_expander11" style="cursor: pointer;" display="none"><path id="kity_path_116" fill="white" stroke="gray" d="M123.5,287.5A6,6,0,1,1,111.5,287.5A6,6,0,1,1,123.5,287.5"></path><path id="kity_path_117" fill="none" stroke="gray"></path></g><path id="node_outline12" fill="rgb(238, 243, 246)" stroke="rgb(115, 161, 191)" d="M29.5,274.5h78a3,3,0,0,1,3,3v20a3,3,0,0,1,-3,3h-78a3,3,0,0,1,-3,-3v-20a3,3,0,0,1,3,-3z" stroke-width="1"></path><g id="node_text12" fill="black"><text id="kity_text_113" text-rendering="inherit" font-size="14" dy=".8em" y="278.40000009536743" x="46.5">物理层</text></g></g><g id="kity_g_12" display="none"><path id="kity_path_13" fill="none" stroke="rgb(66, 94, 112)" d="M23.5,172.5h78a3,3,0,0,1,3,3v20a3,3,0,0,1,-3,3h-78a3,3,0,0,1,-3,-3v-20a3,3,0,0,1,3,-3z" stroke-width="5"></path></g><g id="minder_node13"><g id="node_expander12" style="cursor: pointer;" display="none"><path id="kity_path_126" fill="white" stroke="gray" d="M597.5,237.5A6,6,0,1,1,585.5,237.5A6,6,0,1,1,597.5,237.5"></path><path id="kity_path_127" fill="none" stroke="gray"></path></g><path id="node_outline13" fill="none" stroke="none" d="M602.5,226.5h59a5,5,0,0,1,5,5v12a5,5,0,0,1,-5,5h-59a5,5,0,0,1,-5,-5v-12a5,5,0,0,1,5,-5z" stroke-width="3"></path><g id="node_text13" fill="black"><text id="kity_text_123" text-rendering="inherit" font-size="12" dy=".8em" y="229.70000004768372" x="607.5">数据平面</text></g></g><g id="minder_node14"><g id="node_expander13" style="cursor: pointer;" display="none"><path id="kity_path_134" fill="white" stroke="gray" d="M597.5,289.5A6,6,0,1,1,585.5,289.5A6,6,0,1,1,597.5,289.5"></path><path id="kity_path_135" fill="none" stroke="gray"></path></g><path id="node_outline14" fill="none" stroke="none" d="M602.5,278.5h59a5,5,0,0,1,5,5v12a5,5,0,0,1,-5,5h-59a5,5,0,0,1,-5,-5v-12a5,5,0,0,1,5,-5z" stroke-width="3"></path><g id="node_text14" fill="black"><text id="kity_text_131" text-rendering="inherit" font-size="12" dy=".8em" y="281.7000000476837" x="607.5">控制平面</text></g></g><g id="minder_node15"><g id="node_expander14" style="cursor: pointer;" display="none"><path id="kity_path_142" fill="white" stroke="gray" d="M563.5,33.5A6,6,0,1,1,551.5,33.5A6,6,0,1,1,563.5,33.5"></path><path id="kity_path_143" fill="none" stroke="gray"></path></g><path id="node_outline15" fill="rgb(238, 243, 246)" stroke="rgb(115, 161, 191)" d="M485.5,20.5h62a3,3,0,0,1,3,3v20a3,3,0,0,1,-3,3h-62a3,3,0,0,1,-3,-3v-20a3,3,0,0,1,3,-3z" stroke-width="1"></path><g id="node_text15" fill="black"><text id="kity_text_139" text-rendering="inherit" font-size="14" dy=".8em" y="24.40000009536743" x="502.5">引言</text></g></g></g></g></svg>